<?xml version="1.0" encoding="iso-8859-1"?>
<!-- Generator: Adobe Illustrator 19.0.0, SVG Export Plug-In . SVG Version: 6.00 Build 0)  -->
<svg xmlns="http://www.w3.org/2000/svg" xmlns:xlink="http://www.w3.org/1999/xlink" version="1.1" id="Layer_1" x="0px" y="0px" viewBox="0 0 512 512" style="enable-background:new 0 0 512 512;" xml:space="preserve" width="512px" height="512px">
<g>
	<g>
		<path d="M509.408,338.986c-2.485-2.302-6.141-2.812-9.16-1.279c-34.164,17.341-71.04,26.133-109.605,26.133    c-25.757,0-51.112-4.016-75.359-11.936c-4.255-1.388-8.817,0.932-10.201,5.178c-1.387,4.246,0.93,8.814,5.177,10.201    c25.871,8.451,52.916,12.736,80.383,12.736c33.63,0,66.064-6.272,96.699-18.672C444.62,443.699,359.844,495.819,265.8,495.819    c-137.642,0-249.621-111.979-249.621-249.621c0-94.041,52.119-178.817,134.471-221.538    c-12.403,30.637-18.673,63.066-18.673,96.696c0,50.709,14.671,99.812,42.427,141.996c27.049,41.111,64.982,73.538,109.696,93.776    c4.076,1.842,8.865,0.035,10.706-4.035c1.842-4.07,0.036-8.863-4.034-10.705c-86.637-39.209-142.616-125.969-142.616-221.032    c0-38.562,8.793-75.438,26.133-109.602c1.533-3.02,1.022-6.675-1.279-9.16c-2.304-2.485-5.911-3.272-9.035-1.974    C116.026,20.523,75.196,53.803,45.893,96.865C15.87,140.987,0,192.625,0,246.198c0,70.997,27.648,137.746,77.851,187.949    c50.204,50.203,116.952,77.85,187.949,77.85c53.574,0,105.212-15.87,149.336-45.895c43.06-29.302,76.342-70.134,96.245-118.081    C512.68,344.894,511.892,341.288,509.408,338.986z" fill="#FFFFFF"/>
	</g>
</g>
<g>
</g>
<g>
</g>
<g>
</g>
<g>
</g>
<g>
</g>
<g>
</g>
<g>
</g>
<g>
</g>
<g>
</g>
<g>
</g>
<g>
</g>
<g>
</g>
<g>
</g>
<g>
</g>
<g>
</g>
</svg>
