<?xml version="1.0" encoding="iso-8859-1"?>
<!-- Generator: Adobe Illustrator 16.0.0, SVG Export Plug-In . SVG Version: 6.00 Build 0)  -->
<!DOCTYPE svg PUBLIC "-//W3C//DTD SVG 1.1//EN" "http://www.w3.org/Graphics/SVG/1.1/DTD/svg11.dtd">
<svg xmlns="http://www.w3.org/2000/svg" xmlns:xlink="http://www.w3.org/1999/xlink" version="1.1" id="Capa_1" x="0px" y="0px" width="512px" height="512px" viewBox="0 0 554.699 554.699" style="enable-background:new 0 0 554.699 554.699;" xml:space="preserve">
<g>
	<g>
		<path d="M334.8,497.301c-5.7,0-9.601,3.799-9.601,9.6V545.1c0,5.701,3.8,9.6,9.601,9.6c5.8,0,9.6-3.799,9.6-9.6V506.9    C344.399,501.1,340.6,497.301,334.8,497.301z" fill="#FFFFFF"/>
		<path d="M277.499,459c-5.699,0-9.6,3.801-9.6,9.6v38.201c0,5.699,3.8,9.6,9.6,9.6c5.801,0,9.601-3.801,9.601-9.6V468.6    C286.999,462.9,283.199,459,277.499,459z" fill="#FFFFFF"/>
		<path d="M162.699,459c-5.7,0-9.6,3.801-9.6,9.6v38.201c0,5.699,3.8,9.6,9.6,9.6c5.8,0,9.6-3.801,9.6-9.6V468.6    C172.299,462.9,168.399,459,162.699,459z" fill="#FFFFFF"/>
		<path d="M220.1,497.301c-5.7,0-9.6,3.799-9.6,9.6V545.1c0,5.701,3.8,9.6,9.6,9.6c5.8,0,9.6-3.799,9.6-9.6V506.9    C229.699,501.1,225.799,497.301,220.1,497.301z" fill="#FFFFFF"/>
		<path d="M478.3,256.3c0-28.7-13.4-55.5-32.5-74.6c15.3-13.4,24.899-30.6,30.6-51.6c0-5.7,1.9-13.4,1.9-21    c-9.601,3.8-19.101,5.7-28.7,5.7c-47.8,0-86.101-38.2-86.101-86.1c0-9.6,1.9-19.1,5.7-28.7c-7.7,0-13.399,1.9-21,3.8    c-45.899,11.5-80.3,51.6-80.3,101.4c0,7.7,0,15.3,1.9,23c-17.2-7.7-38.2-13.4-59.3-13.4c-74.6,0-133.9,59.3-133.9,133.9    c0,1.9,0,5.7,0,7.6c-34.4,15.3-57.4,47.8-57.4,88.001c0,53.5,42.1,95.6,95.6,95.6h325.1c53.5,0,95.6-42.1,95.6-95.6    C535.699,304.1,512.699,271.6,478.3,256.3z M344.399,23c0,1.9,0,3.8,0,3.8c0,57.4,47.8,105.2,105.2,105.2c1.899,0,3.8,0,3.8,0    c-5.7,13.4-13.4,26.8-24.9,36.3c-17.199-11.5-36.3-17.2-57.399-17.2c-21,0-38.2,5.7-55.5,15.3c-5.7-7.6-13.4-15.3-19.101-21    c-5.699-11.5-9.6-24.9-9.6-40.2C286.999,67,311.899,36.4,344.399,23z M439.999,420.801h-325.1c-42.1,0-76.5-34.4-76.5-76.5    c0-36.301,24.9-66.9,59.3-74.601c-1.9-7.7-1.9-13.4-1.9-21c0-63.1,51.6-114.8,114.8-114.8c44,0,84.1,24.9,103.3,63.1    c15.3-15.3,36.3-24.9,59.3-24.9c47.8,0,86.101,38.2,86.101,86.1c0,3.8,0,7.6,0,11.5c32.5,7.6,57.399,38.201,57.399,74.601    C516.499,386.4,482.1,420.801,439.999,420.801z" fill="#FFFFFF"/>
		<path d="M392.199,459c-5.7,0-9.6,3.801-9.6,9.6v38.201c0,5.699,3.8,9.6,9.6,9.6s9.601-3.801,9.601-9.6V468.6    C401.8,462.9,397.899,459,392.199,459z" fill="#FFFFFF"/>
	</g>
</g>
<g>
</g>
<g>
</g>
<g>
</g>
<g>
</g>
<g>
</g>
<g>
</g>
<g>
</g>
<g>
</g>
<g>
</g>
<g>
</g>
<g>
</g>
<g>
</g>
<g>
</g>
<g>
</g>
<g>
</g>
</svg>
