<?xml version="1.0" encoding="iso-8859-1"?>
<!-- Generator: Adobe Illustrator 17.1.0, SVG Export Plug-In . SVG Version: 6.00 Build 0)  -->
<!DOCTYPE svg PUBLIC "-//W3C//DTD SVG 1.1//EN" "http://www.w3.org/Graphics/SVG/1.1/DTD/svg11.dtd">
<svg xmlns="http://www.w3.org/2000/svg" xmlns:xlink="http://www.w3.org/1999/xlink" version="1.1" id="Capa_1" x="0px" y="0px" viewBox="0 0 386.835 386.835" style="enable-background:new 0 0 386.835 386.835;" xml:space="preserve" width="512px" height="512px">
<g>
	<path d="M117.605,279.971c0,0-15.397,3.255-20.518,4.396c-4.67,1.041-1.578-3.81-1.578-3.81l16.976-26.51   c2.233-3.488,1.216-8.126-2.273-10.36c-3.486-2.232-8.127-1.218-10.36,2.273l-27.596,43.096c-2.243,3.506-2.325,7.412-0.22,10.449   c2.106,3.037,5.793,4.328,9.863,3.458c0,0,17.878-3.813,23.832-5.107c2.779-0.604,2.414,1.385,2.414,1.385l-17.555,34.385   c-1.884,3.689-0.42,8.206,3.27,10.09c1.092,0.558,2.257,0.822,3.404,0.822c2.729-0.001,5.36-1.495,6.686-4.092l23.999-47.008   c1.818-3.563,1.595-7.394-0.598-10.247C125.16,280.338,121.52,279.137,117.605,279.971z" fill="#FFFFFF"/>
	<path d="M215.913,311.155c0,0-18.048,3.815-24.05,5.152c-5.474,1.22-1.849-4.466-1.849-4.466l19.896-31.072   c2.618-4.089,1.426-9.525-2.663-12.143c-4.087-2.617-9.526-1.428-12.144,2.663l-32.346,50.514   c-2.63,4.109-2.726,8.688-0.258,12.248c2.469,3.559,6.79,5.073,11.561,4.053c0,0,20.956-4.468,27.934-5.985   c3.258-0.708,2.829,1.623,2.829,1.623l-20.576,40.304c-2.208,4.324-0.492,9.618,3.833,11.826c1.279,0.653,2.645,0.964,3.99,0.964   c3.198-0.001,6.283-1.752,7.836-4.796l28.13-55.099c2.132-4.177,1.869-8.667-0.7-12.012   C224.767,311.586,220.501,310.178,215.913,311.155z" fill="#FFFFFF"/>
	<path d="M308.105,279.971c0,0-15.397,3.255-20.518,4.396c-4.67,1.041-1.578-3.81-1.578-3.81l16.976-26.51   c2.233-3.488,1.216-8.126-2.272-10.36c-3.486-2.232-8.127-1.218-10.36,2.273l-27.596,43.096c-2.243,3.506-2.325,7.412-0.22,10.449   c2.106,3.037,5.793,4.328,9.863,3.458c0,0,17.878-3.813,23.832-5.107c2.779-0.604,2.413,1.385,2.413,1.385l-17.554,34.385   c-1.884,3.689-0.42,8.206,3.27,10.09c1.092,0.558,2.257,0.822,3.404,0.822c2.729-0.001,5.36-1.495,6.686-4.092l23.999-47.008   c1.818-3.563,1.595-7.394-0.598-10.247C315.66,280.338,312.02,279.137,308.105,279.971z" fill="#FFFFFF"/>
	<path d="M322.164,103.423c-0.521-0.181-1.579-0.68-1.078-2.538c1.666-6.172,2.182-12.521,2.182-18.771   C323.267,36.836,286.431,0,241.154,0c-35.678,0-66.83,22.576-77.966,56.333c-0.148,0.45-0.27,1.295-1.181,1.389   c-0.142,0.015-0.786,0.093-0.934,0.083c-0.837-0.055-1.759-0.108-2.734-0.108c-26.409,0-50.029,16.675-59.708,41.813   c-0.208,0.54-0.964,1.482-3.286,1.155c-3.251-0.457-6.534-0.762-9.818-0.762c-35.076,0-63.613,28.538-63.613,63.615   c0,35.077,28.537,63.615,63.613,63.615h215.779c35.077,0,63.615-28.538,63.615-63.615   C364.921,136.466,347.501,112.223,322.164,103.423z M301.306,212.135H85.527c-26.806,0-48.613-21.809-48.613-48.615   c0-26.806,21.808-48.615,48.613-48.615c3.289,0,6.585,0.335,9.794,0.996c1.203,0.248,2.414,0.373,3.599,0.373   c6.176,0,10.994-3.396,12.889-9.083c6.874-20.631,25.573-34.493,46.531-34.493c0.639,0,1.375,0.05,2.153,0.103   c0.866,0.059,1.848,0.125,2.879,0.134l0.218,0.001c5.248,0,11.842-1.83,13.454-10.551c0.022-0.118,0.041-0.233,0.064-0.342   C185.915,33.901,211.64,15,241.154,15c37.007,0,67.113,30.107,67.113,67.114c0,6.352-0.931,12.78-2.768,19.107   c-1.31,4.512-0.305,7.757,0.769,9.685c2.326,4.178,6.496,5.342,8.277,5.839l0.257,0.073c20.678,5.961,35.119,25.166,35.119,46.702   C349.921,190.326,328.113,212.135,301.306,212.135z" fill="#FFFFFF"/>
</g>
<g>
</g>
<g>
</g>
<g>
</g>
<g>
</g>
<g>
</g>
<g>
</g>
<g>
</g>
<g>
</g>
<g>
</g>
<g>
</g>
<g>
</g>
<g>
</g>
<g>
</g>
<g>
</g>
<g>
</g>
</svg>
